<svg id="Layer_1" data-name="Layer 1" xmlns="http://www.w3.org/2000/svg" viewBox="0 0 512 512"><defs><style>.cls-1{fill:#000;}</style></defs><title>box-arrow-out-outline</title><path class="cls-1" d="M448,192a21.33,21.33,0,0,0-21.33,21.33v256h-384v-384h256a21.33,21.33,0,0,0,0-42.67H21.33A21.33,21.33,0,0,0,0,64V490.67A21.33,21.33,0,0,0,21.33,512H448a21.33,21.33,0,0,0,21.33-21.33V213.33A21.33,21.33,0,0,0,448,192Z"/><path class="cls-1" d="M490.67,0H384a21.33,21.33,0,0,0,0,42.67h55.17L251.58,230.25a21.33,21.33,0,1,0,30.17,30.17L469.33,72.83V128A21.33,21.33,0,0,0,512,128V21.33A21.33,21.33,0,0,0,490.67,0Z"/></svg>